<svg xmlns="http://www.w3.org/2000/svg" version="1.1" xmlns:xlink="http://www.w3.org/1999/xlink" xmlns:svgjs="http://svgjs.dev/svgjs" width="1000" height="1000" viewBox="0 0 1000 1000"><rect width="1000" height="1000" fill="#ffffff"></rect><g transform="matrix(0.7,0,0,0.7,149.57575757575756,282.1265587044535)"><svg viewBox="0 0 396 247" data-background-color="#ffffff" preserveAspectRatio="xMidYMid meet" height="623" width="1000" xmlns="http://www.w3.org/2000/svg" xmlns:xlink="http://www.w3.org/1999/xlink"><g id="tight-bounds" transform="matrix(1,0,0,1,0.2400000000000091,-0.09999999999999432)"><svg viewBox="0 0 395.52 247.2" height="247.2" width="395.52"><g><svg></svg></g><g><svg viewBox="0 0 395.52 247.2" height="247.2" width="395.52"><g transform="matrix(1,0,0,1,39.55199999999999,73.50769595316416)"><svg viewBox="0 0 316.416 100.18460809367167" height="100.18460809367167" width="316.416"><g><svg viewBox="0 0 316.416 100.18460809367167" height="100.18460809367167" width="316.416"><g><svg viewBox="0 0 316.416 100.18460809367167" height="100.18460809367167" width="316.416"><g id="textblocktransform"><svg viewBox="0 0 316.416 100.18460809367167" height="100.18460809367167" width="316.416" id="textblock"><g><svg viewBox="0 0 316.416 74.23883935998973" height="74.23883935998973" width="316.416"><path d="M315.675 15.923C314.188 8.217 309.948 6.075 309.948 6.075 296.932-1.863 280.688-0.152 266.095 0.989 240.331 1.035 214.671 2.73 188.967 3.64 135.014 3.778 80.599 1.497 26.914 7.123 21.871 8.849-5.232 7.462 0.897 16.909 2.504 20.839 8.364 25.201 8.186 28.807 8.989 29.439 10.105 27.99 10.581 28.9 12.247 31.35 14.969 30.194 17.2 31.643 14.091 35.511 16.323 38.732 18.45 42.108 14.701 42.986 9.897 42.57 7.74 45.483 7.517 47.594 6.312 47.194 4.988 47.101 4.021 47.039 2.072 47.271 2.399 47.933 3.515 50.199-1.275 51.509 1.73 53.728-0.338 56.133 3.158 58.213 2.682 60.818 2.623 61.342 2.95 61.789 3.47 61.912 5.776 62.575 2.414 63.869 2.771 65.272 26.423 74.858 52.083 68.231 76.315 72.639 82.608 69.556 77.877 73.733 80.391 73.086 82.355 72.33 83.783 75.459 85.999 73.687 86.341 73.178 85.821 71.976 87.04 72.207 87.68 72.33 88.245 72.3 88.335 71.591 88.468 70.527 87.293 71.19 86.981 70.635 90.358 67.83 89.525 74.504 92.693 74.226 92.544 73.409 91.622 72.238 93.511 72.392 95.385 71.221 95.445 70.25 97.111 72.885 97.171 73.456 97.468 73.856 97.944 74.134 103.15 71.267 108.327 75.151 113.786 73.856 117.133 72.438 120.346 74.627 123.738 74.087 124.928 73.656 126.133 72.885 127.278 74.18 141.306 74.457 156.256 73.301 169.554 74.226 205.092 72.5 243.068 74.935 280.54 72.654 289.375 71.776 298.554 70.527 307.166 69.526 307.166 69.526 314.143 66.782 314.143 54.453S315.631 43.664 315.854 33.847C316.077 24.029 317.118 23.629 315.631 15.923Z" opacity="1" fill="#8bc53f" data-fill-palette-color="tertiary"></path><g transform="matrix(1,0,0,1,44.614656000000004,18.247992802666666)"><svg width="227.186688" viewBox="2 -35.63999938964844 228.0500030517578 37.88999938964844" height="37.742853754656394" data-palette-color="#ffffff"><path d="M24.37-32.23L24.37-32.23 22.41-29.98Q18.6-32.81 14.89-32.81L14.89-32.81Q12.45-32.81 10.69-31.64 8.94-30.47 8.03-28.81 7.13-27.15 6.62-24.61 6.1-22.07 5.98-20.21 5.86-18.36 5.86-15.87L5.86-15.87Q5.86-13.43 6.76-10.33 7.67-7.23 9.81-4.54 11.96-1.86 14.79-1.86L14.79-1.86Q17.87-1.86 24.22-5.08L24.22-5.08Q24.85-4.15 25.88-2L25.88-2Q19.73 2.25 14.89 2.25L14.89 2.25Q11.77 2.25 9.18 0.34 6.59-1.56 5.1-4.49 3.61-7.42 2.81-10.62 2-13.82 2-16.7L2-16.7Q2-19.87 2.49-22.88 2.98-25.88 4.15-28.91 5.32-31.93 7.69-33.79 10.06-35.64 13.33-35.64L13.33-35.64Q16.16-35.64 19.19-34.67 22.22-33.69 24.37-32.23ZM26.41-10.4L26.41-10.4Q26.41-12.35 26.83-14.75 27.24-17.14 28.07-19.78 28.9-22.41 30.56-24.17 32.22-25.93 34.42-25.93L34.42-25.93Q39.11-25.93 41.94-21.7 44.77-17.48 44.77-12.3L44.77-12.3Q44.77-10.11 44.31-7.93 43.85-5.76 42.87-3.66 41.89-1.56 40.06-0.17 38.23 1.22 35.79 1.42L35.79 1.42Q31.3 0.83 28.85-2.42 26.41-5.66 26.41-10.4ZM34.71-23.39L34.71-23.39Q33.01-23.19 31.83-20.26 30.66-17.33 30.32-14.58 29.98-11.82 29.98-9.72L29.98-9.72Q29.98-6.98 31.66-4.66 33.35-2.34 35.45-2.34L35.45-2.34Q36.96-2.34 38.18-3.52 39.4-4.69 40.11-6.42 40.82-8.15 41.18-9.91 41.55-11.67 41.55-13.04L41.55-13.04Q41.55-17.04 39.74-20.02 37.94-23 34.71-23.39ZM48.73-10.4L48.73-10.4Q48.73-12.35 49.14-14.75 49.56-17.14 50.39-19.78 51.22-22.41 52.88-24.17 54.54-25.93 56.73-25.93L56.73-25.93Q61.42-25.93 64.25-21.7 67.08-17.48 67.08-12.3L67.08-12.3Q67.08-10.11 66.62-7.93 66.16-5.76 65.18-3.66 64.2-1.56 62.37-0.17 60.54 1.22 58.1 1.42L58.1 1.42Q53.61 0.83 51.17-2.42 48.73-5.66 48.73-10.4ZM57.03-23.39L57.03-23.39Q55.32-23.19 54.15-20.26 52.97-17.33 52.63-14.58 52.29-11.82 52.29-9.72L52.29-9.72Q52.29-6.98 53.97-4.66 55.66-2.34 57.76-2.34L57.76-2.34Q59.27-2.34 60.49-3.52 61.71-4.69 62.42-6.42 63.13-8.15 63.5-9.91 63.86-11.67 63.86-13.04L63.86-13.04Q63.86-17.04 62.06-20.02 60.25-23 57.03-23.39ZM71.04-2.34L72.11-33.5 74.36-33.01 75.43-1.42Q74.99 0.1 73.72 0.1L73.72 0.1Q72.84 0.1 72.04-0.61 71.23-1.32 71.04-2.34L71.04-2.34ZM97.84-0.44L97.84 0.29 93.4 0Q93.88-5.37 93.98-17.97 94.08-30.57 94.62-35.55L94.62-35.55Q96.28-35.4 103.43-35.3 110.58-35.21 112.78-34.86L112.78-34.86 113.32-32.67Q111.12-32.28 104.53-31.74 97.94-31.2 97.59-31.15L97.59-31.15Q97.64-30.03 97.81-26.56 97.99-23.1 98.03-20.85L98.03-20.85Q99.69-20.65 104.09-20.29 108.48-19.92 109.66-19.82L109.66-19.82 110.14-17.58Q99.84-16.65 98.08-16.6L98.08-16.6 98.08-15.77Q98.08-13.92 97.96-8.08 97.84-2.25 97.84-0.44L97.84-0.44ZM115.76-2.34L116.83-33.5 119.08-33.01 120.15-1.42Q119.71 0.1 118.44 0.1L118.44 0.1Q117.56 0.1 116.76-0.61 115.95-1.32 115.76-2.34L115.76-2.34ZM124.15-10.4L124.15-10.4Q124.15-12.35 124.57-14.75 124.98-17.14 125.81-19.78 126.64-22.41 128.3-24.17 129.96-25.93 132.16-25.93L132.16-25.93Q136.85-25.93 139.68-21.7 142.51-17.48 142.51-12.3L142.51-12.3Q142.51-10.11 142.05-7.93 141.58-5.76 140.61-3.66 139.63-1.56 137.8-0.17 135.97 1.22 133.53 1.42L133.53 1.42Q129.04 0.83 126.59-2.42 124.15-5.66 124.15-10.4ZM132.45-23.39L132.45-23.39Q130.74-23.19 129.57-20.26 128.4-17.33 128.06-14.58 127.72-11.82 127.72-9.72L127.72-9.72Q127.72-6.98 129.4-4.66 131.09-2.34 133.19-2.34L133.19-2.34Q134.7-2.34 135.92-3.52 137.14-4.69 137.85-6.42 138.56-8.15 138.92-9.91 139.29-11.67 139.29-13.04L139.29-13.04Q139.29-17.04 137.48-20.02 135.68-23 132.45-23.39ZM168.58-25.29L168.58-25.29 171.86-24.85Q170.93-21 168.93-13.11 166.92-5.22 165.8-0.29L165.8-0.29Q163.9 0.05 162.53 0.05L162.53 0.05Q161.31 0.05 160.28-0.15L160.28-0.15 157.55-9.72 155.2-0.1Q153.3 0.24 151.88 0.24L151.88 0.24Q150.71 0.24 149.69 0.05L149.69 0.05Q148.95-2.49 147.37-7.98 145.78-13.48 144.68-17.53 143.58-21.58 142.7-25.29L142.7-25.29 145.93-25.05 152.27-4.74Q153.89-9.42 155.64-16.31L155.64-16.31Q154.13-21.92 153.3-25.49L153.3-25.49 156.52-25.24 162.87-4.93Q163.65-7.28 164.53-10.21 165.41-13.13 165.95-15.21 166.48-17.29 167.36-20.63 168.24-23.97 168.58-25.29ZM193.48-4.74L193.48-4.74 193.97-2.59Q191.82-1.81 187.6-0.85 183.38 0.1 181.33 0.1L181.33 0.1Q179.23 0.1 177.66-1.29 176.1-2.69 175.32-4.86 174.54-7.03 174.17-9.16 173.81-11.28 173.81-13.33L173.81-13.33Q173.81-25.54 184.84-25.54L184.84-25.54Q187.48-25.54 189.48-23.85 191.48-22.17 191.48-19.48L191.48-19.48Q191.48-18.02 190.68-16.89 189.87-15.77 188.72-15.11 187.58-14.45 185.79-13.92 184.01-13.38 182.64-13.13 181.28-12.89 179.37-12.6 177.47-12.3 176.74-12.16L176.74-12.16Q176.78-10.74 176.91-9.67 177.03-8.59 177.39-7.35 177.76-6.1 178.37-5.3 178.98-4.49 180.06-3.96 181.13-3.42 182.59-3.42L182.59-3.42Q184.35-3.42 186.89-3.74 189.43-4.05 191.41-4.39 193.39-4.74 193.48-4.74ZM176.93-15.19L176.93-15.19Q183.57-17.09 187.82-19.19L187.82-19.19Q187.48-20.8 186.89-21.53 186.31-22.27 185.13-22.27L185.13-22.27Q182.16-22.27 179.74-20.21 177.32-18.16 176.93-15.19ZM212.04-18.6L212.04-18.6 209.89-18.75Q208.86-21.48 206.42-21.48L206.42-21.48Q205.35-21.48 204.15-21 202.95-20.51 202.17-20 201.39-19.48 200.12-18.51L200.12-18.51Q200.12-17.82 200.1-14.06 200.07-10.3 200.15-5.71 200.22-1.12 200.32-0.78L200.32-0.78Q199.88 0.68 198.61 0.68L198.61 0.68Q197.73 0.68 196.92-0.02 196.12-0.73 195.92-1.76L195.92-1.76Q196.85-17.43 197.58-25.44L197.58-25.44 199.78-24.95 199.93-21.68Q203.34-24.51 205.79-24.51L205.79-24.51Q208.47-24.51 210.3-23.29 212.13-22.07 212.13-19.73L212.13-19.73Q212.13-18.99 212.04-18.6ZM229.12-23.54L229.12-23.54 228.63-21.58Q223.9-23.54 221.26-23.54L221.26-23.54Q218.92-23.54 217.97-22.83 217.01-22.12 217.01-19.82L217.01-19.82Q217.01-17.97 218.36-16.75 219.7-15.53 221.6-14.82 223.51-14.11 225.44-13.31 227.37-12.5 228.71-10.94 230.05-9.38 230.05-7.08L230.05-7.08Q230.05-3.96 227.76-1.61 225.46 0.73 221.8 0.78L221.8 0.78Q219.11 0.78 216.77-0.34 214.43-1.46 213.06-3.17L213.06-3.17 214.47-4.64Q215.06-4.39 216.21-3.86 217.36-3.32 217.84-3.15 218.33-2.98 219.28-2.78 220.24-2.59 221.31-2.59L221.31-2.59Q223.61-2.59 225.07-3.61 226.54-4.64 226.54-6.49L226.54-6.49Q226.54-7.71 225.85-8.57 225.17-9.42 224.04-9.96 222.92-10.5 221.58-10.99 220.24-11.47 218.89-12.08 217.55-12.7 216.43-13.55 215.3-14.4 214.62-15.87 213.94-17.33 213.94-19.34L213.94-19.34Q213.94-22.27 215.52-24.24 217.11-26.22 219.99-26.22L219.99-26.22Q221.12-26.22 222.53-25.88 223.95-25.54 224.78-25.24 225.61-24.95 227.24-24.29 228.88-23.63 229.12-23.54Z" opacity="1" transform="matrix(1,0,0,1,0,0)" fill="#ffffff" class="undefined-text-0" data-fill-palette-color="quaternary" id="text-0"></path></svg></g></svg></g><g transform="matrix(1,0,0,1,60.435456,83.14902130297399)"><svg viewBox="0 0 195.545088 17.035586790697675" height="17.035586790697675" width="195.545088"><g transform="matrix(1,0,0,1,0,0)"><svg width="195.545088" viewBox="4.349999904632568 -36.099998474121094 550.3400268554688 47.94999694824219" height="17.035586790697675" data-palette-color="#8bc53f"><path d="M7.45 0L4.35 0 4.35-34.75 24.85-34.75 24.85-31.95 7.45-31.95 7.45-17.6 22.25-17.6 22.25-14.85 7.45-14.85 7.45 0ZM31.85 0L28.9 0 28.9-25 31.85-25 31.85-21.4Q33.7-22.7 36.37-23.9 39.05-25.1 41.3-25.5L41.3-25.5 41.3-22.5Q39.15-22.05 36.8-21.13 34.45-20.2 33.15-19.5L33.15-19.5 31.85-18.75 31.85 0ZM61.75-2.5L61.75-2.5 63.25-2.65 63.34-0.2Q57.7 0.5 53.8 0.5L53.8 0.5Q48.4 0.45 46.25-2.7 44.09-5.85 44.09-12.4L44.09-12.4Q44.09-25.5 54.4-25.5L54.4-25.5Q59.34-25.5 61.8-22.68 64.25-19.85 64.25-13.65L64.25-13.65 64.15-11.25 47.15-11.25Q47.15-6.65 48.72-4.42 50.3-2.2 54.12-2.2 57.95-2.2 61.75-2.5ZM47.15-13.75L47.15-13.75 61.25-13.75Q61.25-18.7 59.62-20.8 58-22.9 54.42-22.9 50.84-22.9 49-20.73 47.15-18.55 47.15-13.75ZM77.94-22.75L77.94-22.75Q72.04-22.75 72.04-18.5L72.04-18.5Q72.04-16.55 73.34-15.75 74.64-14.95 79.22-14.18 83.79-13.4 85.67-12.05 87.54-10.7 87.54-6.88 87.54-3.05 85.09-1.28 82.64 0.5 77.89 0.5L77.89 0.5Q75.14 0.5 70.79-0.2L70.79-0.2 69.34-0.4 69.54-3.05Q75.14-2.2 78.14-2.2 81.14-2.2 82.82-3.25 84.49-4.3 84.49-6.8 84.49-9.3 83.12-10.13 81.74-10.95 77.22-11.65 72.69-12.35 70.84-13.65 68.99-14.95 68.99-18.55 68.99-22.15 71.54-23.8 74.09-25.45 77.84-25.45L77.84-25.45Q80.84-25.45 85.34-24.8L85.34-24.8 86.69-24.6 86.59-21.95Q81.24-22.75 77.94-22.75ZM96.54-21.1L96.54 0 93.59 0 93.59-36.1 96.54-36.1 96.54-23.55Q100.74-25.5 104.64-25.5L104.64-25.5Q109.64-25.5 111.32-22.85 112.99-20.2 112.99-13.15L112.99-13.15 112.99 0 109.99 0 109.99-13Q109.99-18.75 108.92-20.78 107.84-22.8 104.24-22.8L104.24-22.8Q102.49-22.8 100.57-22.38 98.64-21.95 97.59-21.5L97.59-21.5 96.54-21.1ZM134.94 0L131.84 0 131.84-34.75 152.34-34.75 152.34-31.95 134.94-31.95 134.94-17.6 149.74-17.6 149.74-14.85 134.94-14.85 134.94 0ZM173.13-2.5L173.13-2.5 174.63-2.65 174.73-0.2Q169.08 0.5 165.18 0.5L165.18 0.5Q159.78 0.45 157.63-2.7 155.48-5.85 155.48-12.4L155.48-12.4Q155.48-25.5 165.78-25.5L165.78-25.5Q170.73-25.5 173.18-22.68 175.63-19.85 175.63-13.65L175.63-13.65 175.53-11.25 158.53-11.25Q158.53-6.65 160.11-4.42 161.68-2.2 165.51-2.2 169.33-2.2 173.13-2.5ZM158.53-13.75L158.53-13.75 172.63-13.75Q172.63-18.7 171.01-20.8 169.38-22.9 165.81-22.9 162.23-22.9 160.38-20.73 158.53-18.55 158.53-13.75ZM198.33-2.5L198.33-2.5 199.83-2.65 199.93-0.2Q194.28 0.5 190.38 0.5L190.38 0.5Q184.98 0.45 182.83-2.7 180.68-5.85 180.68-12.4L180.68-12.4Q180.68-25.5 190.98-25.5L190.98-25.5Q195.93-25.5 198.38-22.68 200.83-19.85 200.83-13.65L200.83-13.65 200.73-11.25 183.73-11.25Q183.73-6.65 185.31-4.42 186.88-2.2 190.71-2.2 194.53-2.2 198.33-2.5ZM183.73-13.75L183.73-13.75 197.83-13.75Q197.83-18.7 196.21-20.8 194.58-22.9 191.01-22.9 187.43-22.9 185.58-20.73 183.73-18.55 183.73-13.75ZM210.23 0L207.28 0 207.28-36.1 210.23-36.1 210.23 0ZM220.98 0L218.03 0 218.03-25 220.98-25 220.98 0ZM220.98-31.25L218.03-31.25 218.03-35 220.98-35 220.98-31.25ZM231.42-20.7L231.42 0 228.47 0 228.47-25 231.42-25 231.42-23.15Q235.62-25.5 239.57-25.5L239.57-25.5Q244.57-25.5 246.25-22.85 247.92-20.2 247.92-13.15L247.92-13.15 247.92 0 244.92 0 244.92-13Q244.92-18.75 243.82-20.78 242.72-22.8 239.12-22.8L239.12-22.8Q237.37-22.8 235.45-22.28 233.52-21.75 232.47-21.2L232.47-21.2 231.42-20.7ZM275.37 3.8Q275.37 8.05 272.65 9.95 269.92 11.85 264.17 11.85 258.42 11.85 256.22 10.2 254.02 8.55 254.02 4.15L254.02 4.15Q254.02 2.05 254.92 0.78 255.82-0.5 258.07-2.15L258.07-2.15Q256.82-2.95 256.82-5.55L256.82-5.55Q256.82-6.35 258.02-8.7L258.02-8.7 258.42-9.45Q254.32-11.15 254.32-17L254.32-17Q254.32-25.5 263.37-25.5L263.37-25.5Q265.92-25.5 267.87-25L267.87-25 268.62-24.85 275.87-25 275.87-22.35 270.87-22.45Q272.67-20.65 272.67-16.53 272.67-12.4 270.4-10.53 268.12-8.65 263.22-8.65L263.22-8.65Q261.77-8.65 260.67-8.85L260.67-8.85Q259.67-6.4 259.67-5.75L259.67-5.75Q259.67-4.1 260.65-3.73 261.62-3.35 266.47-3.33 271.32-3.3 273.35-1.88 275.37-0.45 275.37 3.8ZM257.02 3.95L257.02 3.95Q257.02 6.95 258.52 8.1 260.02 9.25 264.32 9.25 268.62 9.25 270.47 8.03 272.32 6.8 272.32 3.93 272.32 1.05 270.97 0.2 269.62-0.65 265.82-0.65L265.82-0.65 260.17-0.85Q258.32 0.45 257.67 1.43 257.02 2.4 257.02 3.95ZM257.37-17.03Q257.37-13.8 258.77-12.48 260.17-11.15 263.5-11.15 266.82-11.15 268.22-12.45 269.62-13.75 269.62-17.03 269.62-20.3 268.22-21.65 266.82-23 263.5-23 260.17-23 258.77-21.63 257.37-20.25 257.37-17.03ZM288.12-22.75L288.12-22.75Q282.22-22.75 282.22-18.5L282.22-18.5Q282.22-16.55 283.52-15.75 284.82-14.95 289.39-14.18 293.97-13.4 295.84-12.05 297.72-10.7 297.72-6.88 297.72-3.05 295.27-1.28 292.82 0.5 288.07 0.5L288.07 0.5Q285.32 0.5 280.97-0.2L280.97-0.2 279.52-0.4 279.72-3.05Q285.32-2.2 288.32-2.2 291.32-2.2 292.99-3.25 294.67-4.3 294.67-6.8 294.67-9.3 293.29-10.13 291.92-10.95 287.39-11.65 282.87-12.35 281.02-13.65 279.17-14.95 279.17-18.55 279.17-22.15 281.72-23.8 284.27-25.45 288.02-25.45L288.02-25.45Q291.02-25.45 295.52-24.8L295.52-24.8 296.87-24.6 296.77-21.95Q291.42-22.75 288.12-22.75ZM318.46 0L315.36 0 315.36-34.75 335.86-34.75 335.86-31.95 318.46-31.95 318.46-17.6 333.26-17.6 333.26-14.85 318.46-14.85 318.46 0ZM339.06-12.55Q339.06-19.6 341.44-22.55 343.81-25.5 349.54-25.5 355.26-25.5 357.64-22.55 360.01-19.6 360.01-12.55 360.01-5.5 357.84-2.5 355.66 0.5 349.56 0.5 343.46 0.5 341.26-2.5 339.06-5.5 339.06-12.55ZM342.16-12.63Q342.16-6.7 343.54-4.42 344.91-2.15 349.54-2.15 354.16-2.15 355.56-4.45 356.96-6.75 356.96-12.63 356.96-18.5 355.39-20.68 353.81-22.85 349.56-22.85 345.31-22.85 343.74-20.7 342.16-18.55 342.16-12.63ZM369.41 0L366.46 0 366.46-25 369.41-25 369.41-21.4Q371.26-22.7 373.93-23.9 376.61-25.1 378.86-25.5L378.86-25.5 378.86-22.5Q376.71-22.05 374.36-21.13 372.01-20.2 370.71-19.5L370.71-19.5 369.41-18.75 369.41 0ZM395 0L395-34.75 407.35-34.75Q417.6-34.75 417.6-26L417.6-26Q417.6-19.85 413-17.9L413-17.9Q418.75-16.1 418.75-9.65L418.75-9.65Q418.75-4.4 416.03-2.2 413.3 0 408.1 0L408.1 0 395 0ZM407.75-16.35L407.75-16.35 398.1-16.35 398.1-2.75 408.05-2.75Q411.7-2.75 413.65-4.3 415.6-5.85 415.6-9.75L415.6-9.75Q415.6-16.35 407.75-16.35ZM407.25-32L407.25-32 398.1-32 398.1-19.05 407.7-19.05Q411.2-19.05 412.83-20.73 414.45-22.4 414.45-25.7 414.45-29 412.68-30.5 410.9-32 407.25-32ZM441.8-2.5L441.8-2.5 443.3-2.65 443.4-0.2Q437.75 0.5 433.85 0.5L433.85 0.5Q428.45 0.45 426.3-2.7 424.15-5.85 424.15-12.4L424.15-12.4Q424.15-25.5 434.45-25.5L434.45-25.5Q439.4-25.5 441.85-22.68 444.3-19.85 444.3-13.65L444.3-13.65 444.2-11.25 427.2-11.25Q427.2-6.65 428.78-4.42 430.35-2.2 434.18-2.2 438-2.2 441.8-2.5ZM427.2-13.75L427.2-13.75 441.3-13.75Q441.3-18.7 439.68-20.8 438.05-22.9 434.48-22.9 430.9-22.9 429.05-20.73 427.2-18.55 427.2-13.75ZM453.7 0L450.75 0 450.75-36.1 453.7-36.1 453.7 0ZM460.45-12.55Q460.45-19.6 462.82-22.55 465.2-25.5 470.92-25.5 476.65-25.5 479.02-22.55 481.4-19.6 481.4-12.55 481.4-5.5 479.22-2.5 477.05 0.5 470.95 0.5 464.85 0.5 462.65-2.5 460.45-5.5 460.45-12.55ZM463.55-12.63Q463.55-6.7 464.92-4.42 466.3-2.15 470.92-2.15 475.55-2.15 476.95-4.45 478.35-6.75 478.35-12.63 478.35-18.5 476.77-20.68 475.2-22.85 470.95-22.85 466.7-22.85 465.12-20.7 463.55-18.55 463.55-12.63ZM492.29 0L484.99-25 488.29-25 494.54-2.6 496.54-2.6 503.04-25 506.14-25 498.84 0 492.29 0ZM527.34-2.5L527.34-2.5 528.84-2.65 528.94-0.2Q523.29 0.5 519.39 0.5L519.39 0.5Q513.99 0.45 511.84-2.7 509.69-5.85 509.69-12.4L509.69-12.4Q509.69-25.5 519.99-25.5L519.99-25.5Q524.94-25.5 527.39-22.68 529.84-19.85 529.84-13.65L529.84-13.65 529.74-11.25 512.74-11.25Q512.74-6.65 514.32-4.42 515.89-2.2 519.72-2.2 523.54-2.2 527.34-2.5ZM512.74-13.75L512.74-13.75 526.84-13.75Q526.84-18.7 525.22-20.8 523.59-22.9 520.02-22.9 516.44-22.9 514.59-20.73 512.74-18.55 512.74-13.75ZM551.69-36.1L554.69-36.1 554.69 0 551.69 0 551.69-1.85Q547.74 0.5 543.69 0.5L543.69 0.5Q541.84 0.5 540.49 0.08 539.14-0.35 537.74-1.6L537.74-1.6Q534.89-4.15 534.89-11.58 534.89-19 537.29-22.25 539.69-25.5 545.39-25.5L545.39-25.5Q547.59-25.5 551.69-24.85L551.69-24.85 551.69-36.1ZM539.94-3.85Q540.89-2.9 541.81-2.55 542.74-2.2 544.21-2.2 545.69-2.2 547.61-2.75 549.54-3.3 550.64-3.8L550.64-3.8 551.69-4.35 551.69-22.25Q547.69-22.85 545.49-22.85L545.49-22.85Q541.24-22.85 539.61-20.25 537.99-17.65 537.99-12.2L537.99-12.2Q537.99-5.8 539.94-3.85L539.94-3.85Z" opacity="1" transform="matrix(1,0,0,1,0,0)" fill="#8bc53f" class="undefined-text-1" data-fill-palette-color="secondary" id="text-1"></path></svg></g></svg></g></svg></g></svg></g><g></g></svg></g></svg></g><g mask="url(#38541325-7844-4a3e-a4dd-7ba6a9e55038)"><g transform="matrix(2.451987466189557, 0, 0, 2.451987466189557, 117.1006458569891, 1)"><svg version="1.0" xmlns="http://www.w3.org/2000/svg" xmlns:xlink="http://www.w3.org/1999/xlink" x="0" y="0" viewBox="0 0 65.79100036621094 100.0005111694336" enable-background="new 0 0 65.79 100" xml:space="preserve" width="65.79100036621094" height="100.0005111694336" class="icon-none" data-fill-palette-color="accent" id="none"><path d="M26.083 79.406c-2.386-2.373-5.516-3.536-8.635-3.5l-0.012-0.005L5.513 75.874l0.026 11.924 0.005 0.012c-0.036 3.119 1.127 6.25 3.499 8.636 0.008 0.008 0.015 0.017 0.023 0.025 4.706 4.706 12.336 4.706 17.042 0 2.354-2.354 3.53-5.438 3.53-8.521s-1.177-6.168-3.53-8.521C26.101 79.42 26.092 79.413 26.083 79.406z" fill="#5d9943" data-fill-palette-color="accent"></path><path d="M65.79 24.102c0-6.656-5.396-12.051-12.051-12.051C53.739 5.395 48.344 0 41.689 0c-3.475 0-6.596 1.478-8.794 3.83C30.695 1.478 27.575 0 24.102 0c-6.655 0-12.051 5.395-12.051 12.051C5.396 12.051 0 17.446 0 24.102c0 3.473 1.478 6.594 3.83 8.793C1.478 35.094 0 38.215 0 41.689c0 6.655 5.396 12.05 12.051 12.05 0 6.655 5.396 12.051 12.051 12.051 2.001 0 3.878-0.504 5.537-1.369v23.528V100h6.514V87.949 64.421c1.658 0.865 3.535 1.369 5.537 1.369 6.654 0 12.05-5.396 12.05-12.051 6.655 0 12.051-5.395 12.051-12.05 0-3.474-1.478-6.595-3.829-8.794C64.312 30.696 65.79 27.575 65.79 24.102zM32.896 53.739c-11.513 0-20.845-9.333-20.845-20.844s9.332-20.844 20.845-20.844c11.511 0 20.844 9.333 20.844 20.844S44.406 53.739 32.896 53.739z" fill="#5d9943" data-fill-palette-color="accent"></path><path d="M56.724 96.471c0.009-0.009 0.015-0.018 0.023-0.025 2.372-2.386 3.534-5.517 3.5-8.636l0.004-0.012 0.026-11.924-11.924 0.027-0.011 0.005c-3.119-0.036-6.25 1.127-8.636 3.5-0.009 0.007-0.018 0.014-0.025 0.021-2.354 2.354-3.529 5.438-3.529 8.521s1.176 6.168 3.529 8.521C44.388 101.177 52.018 101.177 56.724 96.471z" fill="#5d9943" data-fill-palette-color="accent"></path></svg></g></g></svg></g><defs><mask id="c708a5c5-0841-4403-84e2-b0d4f8a41408"><rect width="640" height="400" fill="white"></rect><rect width="348.05760000000004" height="118.0049719796402" fill="black" y="64.59751401017989" x="23.731199999999973" id="transform-me"></rect></mask><mask id="ea1b4a06-75f0-44f1-8557-fc53595cf615"><rect width="640" height="400" fill="white"></rect><rect width="348.05760000000004" height="118.0049719796402" fill="black" y="64.59751401017989" x="23.731199999999973" id="transform-me"></rect></mask><mask id="3a17548e-916e-4ae7-ad9c-405f2c48626f"><rect width="640" height="400" fill="white"></rect><rect width="348.05760000000004" height="118.0049719796402" fill="black" y="64.59751401017989" x="23.731199999999973" id="transform-me"></rect></mask><mask id="4453e7a8-0889-4e36-a5de-e89c0fe6face"><rect width="640" height="400" fill="white"></rect><rect width="348.05760000000004" height="118.0049719796402" fill="black" y="64.59751401017989" x="23.731199999999973" id="transform-me"></rect></mask><mask id="751a7d5e-1605-427f-b22f-5a0df3b88829"><rect width="640" height="400" fill="white"></rect><rect width="348.05760000000004" height="118.0049719796402" fill="black" y="64.59751401017989" x="23.731199999999973" id="transform-me"></rect></mask><mask id="16fadc31-087e-44f4-8509-1918f031ff62"><rect width="640" height="400" fill="white"></rect><rect width="348.05760000000004" height="118.0049719796402" fill="black" y="64.59751401017989" x="23.731199999999973" id="transform-me"></rect></mask><mask id="a5fc16b9-8ab3-418f-abd0-6e33dc1c8773"><rect width="640" height="400" fill="white"></rect><rect width="348.05760000000004" height="118.0049719796402" fill="black" y="64.59751401017989" x="23.731199999999973" id="transform-me"></rect></mask><mask id="38541325-7844-4a3e-a4dd-7ba6a9e55038"><rect width="640" height="400" fill="white"></rect><rect width="348.05760000000004" height="118.0049719796402" fill="black" y="64.59751401017989" x="23.731199999999973" id="transform-me"></rect></mask></defs></svg><rect width="395.52" height="247.2" fill="none" stroke="none" visibility="hidden"></rect></g></svg></g></svg>